# xmcd
#
# Track frame offsets: 
#        150
#        13247
#        25865
#        40182
#        52957
#        63032
#        76682
#        88870
#        103442
#        116527
#        133880
#        151872
#        166135
#
# Disc length: 2400 seconds
#
# Revision: 12
# Processed by: cddbd v1.5.2PL0 Copyright (c) Steve Scherf et al.
# Submitted via: ExactAudioCopy v0.99pb5
#
DISCID=9d095e0d
DTITLE=Chris Isaak - Forever Blue
DYEAR=1995
DGENRE=Rock
TTITLE0=Baby Did A Bad Bad Thing
TTITLE1=Somebody's Crying
TTITLE2=Graduation Day
TTITLE3=Go Walking Down There
TTITLE4=Don't Leave Me On My Own
TTITLE5=Things Go Wrong
TTITLE6=Forever Blue
TTITLE7=There She Goes
TTITLE8=Goin' Nowhere
TTITLE9=Changed Your Mind
TTITLE10=Shadows In A Mirror
TTITLE11=I Believe
TTITLE12=The End Of Everything
EXTD=
EXTT0=
EXTT1=
EXTT2=
EXTT3=
EXTT4=
EXTT5=
EXTT6=
EXTT7=
EXTT8=
EXTT9=
EXTT10=
EXTT11=
EXTT12=
PLAYORDER=
